<?xml version="1.0" encoding="UTF-8"?> <svg xmlns="http://www.w3.org/2000/svg" viewBox="0 0 540 540"><defs><style>.cls-1{fill:#76659a;}.cls-2{fill:#268040;}.cls-3{fill:#7cb08a;}.cls-4{fill:#fdca6b;}.cls-5,.cls-9{fill:#fff;}.cls-6{fill:#b93038;}.cls-7{fill:#123659;}.cls-8{fill:#f2f1f1;}.cls-9{stroke:#000;stroke-miterlimit:10;}.cls-10{fill:#519760;}.cls-11{fill:#e5e3e3;}.cls-12{fill:#f9a819;}.cls-13{fill:#74869a;}.cls-14{fill:#533d80;}.cls-15{fill:none;}.cls-16{fill:#756398;}.cls-17{fill:#968cb0;}.cls-18{fill:#fba919;}</style></defs><g id="BG"><rect class="cls-1" width="540" height="540"></rect></g><g id="Illos"><path class="cls-2" d="M376.86,223.58s2.33-11.56,10.47-13.46,3.24-11,15.28-11.64c5-.27,10-9,17.24-3.61,8.92,6.67,2.93,14.65-.44,16.72-5.47,3.36-2.25,14.55-12.08,18.16s-.2,25.09-29.16,20.3Z"></path><path class="cls-3" d="M395.5,220.18s17.35-5,16.65-17.33c-.69-12.14,31.36-2.94,12.81-38.52a.39.39,0,0,0-.74.18c-.06,2-1.32,4.66-7.61,4.14-10.07-.81-20.59,4-22.13,13.1-2,11.61-11,7.15-7.18,19.22Z"></path><path class="cls-4" d="M190,81.25H105.62A19.76,19.76,0,0,0,85.87,101V296.82A23.14,23.14,0,0,0,109,320H195a14.79,14.79,0,0,0,14.79-14.79V101A19.76,19.76,0,0,0,190,81.25Z"></path><rect class="cls-5" x="136.01" y="87.53" width="33.51" height="5.54" rx="2.77"></rect><circle class="cls-5" cx="128.88" cy="90.3" r="2.79"></circle><rect class="cls-5" x="97.14" y="97.95" width="101.33" height="44.4" rx="10.05"></rect><rect class="cls-5" x="97.14" y="148.54" width="101.33" height="44.4" rx="10.05"></rect><circle class="cls-6" cx="108.6" cy="170.74" r="7.9"></circle><rect class="cls-5" x="97.71" y="199.21" width="101.33" height="44.4" rx="10.05"></rect><circle class="cls-7" cx="109.17" cy="221.41" r="7.9"></circle><rect class="cls-8" x="103.68" y="110.12" width="86.54" height="5.83" rx="2.91"></rect><rect class="cls-8" x="103.4" y="124.36" width="86.54" height="5.83" rx="2.91"></rect><path class="cls-8" d="M123.11,160.79h99.46a0,0,0,0,1,0,0v5.83a0,0,0,0,1,0,0H123.11a2.91,2.91,0,0,1-2.91-2.91v0a2.91,2.91,0,0,1,2.91-2.91Z"></path><path class="cls-8" d="M122.82,175h99.46a0,0,0,0,1,0,0v5.83a0,0,0,0,1,0,0H122.82a2.91,2.91,0,0,1-2.91-2.91v0A2.91,2.91,0,0,1,122.82,175Z"></path><rect class="cls-9" x="120.76" y="211.46" width="102.37" height="5.83"></rect><rect class="cls-9" x="120.47" y="225.69" width="102.37" height="5.83"></rect><rect class="cls-9" x="121.04" y="262.12" width="102.37" height="5.83"></rect><rect class="cls-9" x="120.76" y="276.35" width="102.37" height="5.83"></rect><path class="cls-10" d="M106.54,337.07s-10.25-3.79-7.21-24.86c1.61-14.51-12.34-17.84,2.46-38.14,7.21-13.47-4.74-21.63,9.49-31.12h8.35v94.12Z"></path><path class="cls-2" d="M151.33,296.83c-5.3-13.75-9.28-19.44-5.3-31.6s4.77-17.39-3.72-28c-8.26-10.31,5.09-32.29-11.94-33.45v-.05h-1.46v.05c-17,1.16-3.67,23.14-11.94,33.45-8.49,10.59-7.69,15.81-3.71,28s0,17.85-5.31,31.6,10.21,17.23,4.51,29.87,1.72,17.23,1.72,17.23l15.46-.46,15.46.46s7.43-4.59,1.72-17.23S156.64,310.58,151.33,296.83Z"></path><path class="cls-11" d="M126.11,343h271a4.47,4.47,0,0,0,4.34-4.43v-220H126.11Z"></path><path class="cls-7" d="M126.11,102.32v16.23H401.42V102.32a5,5,0,0,0-5-5H131.08A5,5,0,0,0,126.11,102.32Z"></path><path class="cls-5" d="M309.5,308.05H348a0,0,0,0,1,0,0v34.9a0,0,0,0,1,0,0H309.5a10,10,0,0,1-10-10V318A10,10,0,0,1,309.5,308.05Z" transform="translate(-74.65 97.38) rotate(-15.36)"></path><path class="cls-12" d="M348.16,473.33s2.35,2,6.45.95c2.41-.64,4.43-.07,7.34,1.45s11.24,3.78,11.4-8.56c-1.39-.93-3.42-1.4-6,.34-3.53,2.35-12.68,7.25-15.76-2.1-.22,0-.78.13-1,.14Z"></path><path class="cls-12" d="M324.82,463.71c-1.58,1.2-2.95,6.64,7.72,9.49,13.6,3.64,19.83,5.35,19.29-4.81-.06-1.1-.15-2.09-.26-3-1.13-.15-4.1-.1-7.68,3.55-4.52,4.62-11.13,3.73-13.6.95-1.88-2.13-.35-4.86.47-6h-.18S326.4,462.51,324.82,463.71Z"></path><path class="cls-13" d="M351.57,465.4c3.08,9.35,12.23,4.46,15.76,2.11,2.6-1.74,4.63-1.27,6-.34,0-.38,0-.77,0-1.18a71.77,71.77,0,0,1,.53-12.27c-6,0-10.19.13-11.49-.11C362,460.56,359.55,465,351.57,465.4Z"></path><path class="cls-13" d="M339.34,453.81c-.06,6.1-2.21,10.43-8.58,10-.82,1.17-2.35,3.9-.47,6,2.47,2.78,9.08,3.67,13.6-.95,3.58-3.65,6.55-3.7,7.68-3.55-.53-4.32-1.54-7.61-1.83-11.66C344.37,455.68,341,454.81,339.34,453.81Z"></path><path class="cls-7" d="M374.35,402.36c3.92-15.18,7.46-31.25,7.46-31.25l-23.65,10s-4.05,14.55-.89,37.7c1.74,12.73,5.59,26.09,5.11,34.81,1.3.24,5.46.11,11.49.16.66-4.2,1.7-6.28,2.25-13.33C377.51,422.6,370.43,417.54,374.35,402.36Z"></path><path class="cls-7" d="M350.69,442.08c3.16-18.47-3.18-20.35-1.77-33.27,1.52-13.92,4.93-30.49,4.93-30.49l-21.75-1.14s-2.16,22.27-.64,34.54c.74,12.08,8,30.67,7.88,42.09,1.62,1,5,1.87,10.4-.09C349.54,450.8,349.7,447.86,350.69,442.08Z"></path><rect class="cls-11" x="306.22" y="324.67" width="46.69" height="7.78" rx="3.89" transform="translate(-70.86 91.44) rotate(-14.28)"></rect><rect class="cls-5" x="133.48" y="124.87" width="136.63" height="7.78" rx="3.89"></rect><path class="cls-5" d="M145.91,136.9H257.68a12.43,12.43,0,0,1,12.43,12.43v3.27a13.53,13.53,0,0,1-13.53,13.53H145.91a12.43,12.43,0,0,1-12.43-12.43v-4.38A12.43,12.43,0,0,1,145.91,136.9Z"></path><rect class="cls-11" x="140.62" y="142.95" width="122.35" height="6.05" rx="3.02"></rect><rect class="cls-11" x="140.62" y="154.04" width="86.59" height="6.05" rx="3.02"></rect><rect class="cls-5" x="132.91" y="207.02" width="136.63" height="29.24" rx="12.43"></rect><path class="cls-11" d="M140,213.07H259.38a3,3,0,0,1,3,3v0a3,3,0,0,1-3,3H140a0,0,0,0,1,0,0v-6A0,0,0,0,1,140,213.07Z"></path><rect class="cls-11" x="140.05" y="224.15" width="86.59" height="6.05" rx="3.02"></rect><path class="cls-5" d="M138.53,303.68H257.86a3,3,0,0,1,3,3v0a3,3,0,0,1-3,3H138.53a0,0,0,0,1,0,0v-6A0,0,0,0,1,138.53,303.68Z"></path><path class="cls-5" d="M138.53,314.76H222.1a3,3,0,0,1,3,3v0a3,3,0,0,1-3,3H138.53a0,0,0,0,1,0,0v-6A0,0,0,0,1,138.53,314.76Z"></path><rect class="cls-5" x="133.08" y="272.65" width="129.06" height="20.58" rx="10.29"></rect><rect class="cls-5" x="133.1" y="171.77" width="136.63" height="29.24" rx="12.43"></rect><rect class="cls-11" x="140.24" y="177.82" width="122.35" height="6.05" rx="3.02"></rect><rect class="cls-11" x="140.24" y="188.91" width="51.95" height="6.05" rx="3.02"></rect><rect class="cls-11" x="223.54" y="188.68" width="38.87" height="6.05" rx="3.02"></rect><rect class="cls-5" x="155.49" y="246.22" width="160.32" height="12.81" rx="6.4"></rect><rect class="cls-5" x="275.95" y="124.85" width="48.67" height="75.71" rx="12.43"></rect><rect class="cls-5" x="331.73" y="148.76" width="61.88" height="135.63" rx="12.43"></rect><rect class="cls-11" x="343.9" y="161.53" width="39.01" height="32.89" rx="16.45"></rect><path class="cls-11" d="M344.66,208.59h22.56A16.45,16.45,0,0,1,383.67,225v0a16.45,16.45,0,0,1-16.45,16.45H344.66a0,0,0,0,1,0,0V208.59a0,0,0,0,1,0,0Z"></path><circle class="cls-6" cx="300.28" cy="142.36" r="10.87"></circle><circle class="cls-5" cx="300.28" cy="222.06" r="12.38"></circle><circle class="cls-2" cx="309.97" cy="320.44" r="5.39"></circle><circle class="cls-11" cx="245.63" cy="282.94" r="7.04"></circle><circle class="cls-14" cx="219.16" cy="282.94" r="7.04"></circle><rect class="cls-11" x="280.85" y="172.49" width="38.87" height="6.05" rx="3.02"></rect><rect class="cls-5" x="331" y="124.67" width="61.99" height="6.16" rx="3.08"></rect><rect class="cls-5" x="331" y="136.34" width="43.86" height="5.72" rx="2.86"></rect><rect class="cls-11" x="288.3" y="184.73" width="23.97" height="6.18" rx="3.09"></rect><circle class="cls-6" cx="138.81" cy="108.01" r="3.81"></circle><circle class="cls-12" cx="151.65" cy="108.01" r="3.81"></circle><circle class="cls-2" cx="164.49" cy="108.01" r="3.81"></circle><path class="cls-8" d="M160.32,387.35c-13.48-30.67-13.3-40.85-12.78-43.56a.71.71,0,0,0-.7-.84H106a.71.71,0,0,0-.7.84c.52,2.71.7,12.89-12.78,43.56-11.21,25.52-1.41,41.67,6,49.41a23.5,23.5,0,0,1,6.5,16.29h0a2.61,2.61,0,0,0,2.61,2.61h37.55a2.61,2.61,0,0,0,2.61-2.61h0a23.5,23.5,0,0,1,6.5-16.29C161.73,429,171.53,412.87,160.32,387.35Z"></path><path class="cls-2" d="M227.2,377.27s-6-6.79-1.94-14.07-6.76-12.55.9-21.87c3.19-3.87,1.28-13.57,9-15.13,10.91-2.2,12.76,7.76,12,11.64-1.23,6.3,9.18,11.51,5.18,21.19s18.33,17.13-4.8,35.2Z"></path><path class="cls-13" d="M337.57,292.9l-16.15,9.21a7.18,7.18,0,0,0-2.2,2l-4.14,5.7,7.59-2.09a6.23,6.23,0,0,1,.92,3.89c-.52,2.66-2.55,5.65-.79,7.27a.67.67,0,0,0,1.11-.35l1.94-4.53c1.09-2.33,1.43-2.92,2.89-3.68,1.74-.9,3.84-3.49,5.28-7.22a1.5,1.5,0,0,1,.86-.85l5.72-2.31Z"></path><path class="cls-13" d="M379.91,259.91,374.85,290l2.48,4.3a34.19,34.19,0,0,1,2.36-3.6l18.53-10.07a3.42,3.42,0,0,0,1.65-4c-1.05-3.49-2.81-6.25-11.73-21.71l-.32-.51A11.21,11.21,0,0,1,379.91,259.91Z"></path><path class="cls-13" d="M311.29,270.55c-5.37,7.92-6.55,9.45-8.13,11.4a.57.57,0,0,1-.86,0l-21.22-11.26a4.06,4.06,0,0,1-2.13-4.39c0-.09.05-.19.08-.29.57-2-.76-4.46-2.09-6.64-1-1.59-2.18-6.13-2.78-8.5a.75.75,0,0,0-1.38-.19c-.68,1.21-1.29,3.35-.3,6.6l.57,1.8H262L263,261.3a1.72,1.72,0,0,1,.07,1.37l-.43,1.18a1.73,1.73,0,0,0,.33,1.74l.65.74A1.7,1.7,0,0,1,264,268a1.73,1.73,0,0,0,.93,2.19l8.5,3.72s17.84,14.87,29.88,22.24a3.37,3.37,0,0,0,3.8-.21c3.69-2.89,6.38-5.12,16.79-16.88C320.11,278.58,313.15,277.29,311.29,270.55Z"></path><path class="cls-6" d="M335.86,294.61c6.64,10.72,6.07,22-.57,36.43s-9.68,30.93-6.93,47.34c0,0,33.4,15.56,57.12,1.71,0,0-.57-11.67,2.37-21.35s4.46-29.31-5.78-44.78c-5.84-8.87-8.75-12.49-4.74-19.64l-2.48-4.3,5.06-30.11a12.24,12.24,0,0,0,8-4.87.74.74,0,0,0,0-.82l-7.78-12s-5.79-9.77-34-.79l-16.7,5.19s-6.39,1.77-11.39,11.89a106.45,106.45,0,0,1-7,11.68,1.17,1.17,0,0,0-.14,1c2,6,8.53,7.82,12.34,8.4a1,1,0,0,0,.92-.35q1.92-2.3,3.89-4.8A54.92,54.92,0,0,0,335.86,294.61Z"></path><path class="cls-12" d="M385.67,272.5c-3.42-10.53.1-18.69-9.58-28.84s-11.86-12.24-9.87-28.28-6.5-22.1-13.76-22.58c-20.73-1.42-20.47,11-20.36,12.6,2.26-.14,9.09-.23,11.92,3.67s.57,8.49-1.38,14.61a54.49,54.49,0,0,0-1.55,10.66c.08,5.83.08,4.9,3.12,12.64,3.13,8,1.61,12-.48,17.17-9.2,17.27-4.27,40.7,17.56,40.7S389.09,283,385.67,272.5Z"></path><path class="cls-5" d="M332.44,210.53a3.35,3.35,0,1,0-2,6.05,2.42,2.42,0,0,0,.38,0,9.15,9.15,0,0,0,1.6-4.36C332.43,211.84,332.44,211.23,332.44,210.53Z"></path><path class="cls-15" d="M332.11,212.2c0-.34,0-.91,0-1.56a3,3,0,0,0-1.51-.42,3,3,0,0,0-3,2.67h4.43A3.85,3.85,0,0,0,332.11,212.2Z"></path><path class="cls-15" d="M327.62,213.57a3,3,0,0,0,3,2.67h.08a11.14,11.14,0,0,0,1.22-2.67Z"></path><path class="cls-13" d="M332.74,213.57h-.83a11.14,11.14,0,0,1-1.22,2.67l-.18.32-.19.35c-.42.8-.64,1.45-.19,2a2.75,2.75,0,0,1,.94,2.37c-.43,2.61.85,2.47.66,3.28-.52,2.13,1.14,2.09,1.24,3.22-.1,3.75,1.28,5.27,4.22,5.17s3.89.86,3.89.86c0,.19,0,.37,0,.55a54.49,54.49,0,0,1,1.55-10.66c1.25-3.93,2.64-7.22,2.71-10.11Z"></path><path class="cls-13" d="M332.12,210.64c0,.65,0,1.22,0,1.56a3.85,3.85,0,0,1-.06.69h13.3a7,7,0,0,0-1.33-3.82c-2.83-3.9-9.66-3.81-11.92-3.67a.92.92,0,0,0,0,.16s0,2.33,0,4.31v.77Z"></path><path class="cls-7" d="M345.35,212.89H327.89a.23.23,0,0,1-.23-.28,3,3,0,0,1,2.95-2.39,3,3,0,0,1,1.51.42h0v-.77a3.67,3.67,0,0,0-5.14,2.67,3.7,3.7,0,0,0,3.34,4.37l.19-.35.18-.32h-.08a3,3,0,0,1-2.95-2.38.24.24,0,0,1,.23-.29h17.46C345.36,213.34,345.36,213.12,345.35,212.89Z"></path><path class="cls-10" d="M243.92,391.92c-.34-.06-16.67-19.94,1.5-34s17-24.87,27-21.84c5.19,1.73,7,5.83,2.16,18.05C267.1,373,275,397.42,243.92,391.92Z"></path><path class="cls-11" d="M270.91,423h0s-8.2-16-11.58-31.31c0,0-13.32.11-16.23,0,0,0,0,0,0,0l-.27,0-.27,0s0,0,0,0c-2.91.08-16.23,0-16.23,0C222.94,407,214.75,423,214.75,423h0a31.87,31.87,0,1,0,56.16,0Z"></path><path class="cls-16" d="M165.27,472.68c1.47,5,10,4.2,13.43,3.52a18.86,18.86,0,0,1,2.12-.25c7-.32,14.84.19,22-6.94a4.27,4.27,0,0,0,1.16-3.24,3.25,3.25,0,0,0-.81-2c-9.65,12.24-32.1,6.79-37.18,5.36a.83.83,0,0,0-1.05.83c0,.66.09,1.34.14,1.69A6,6,0,0,0,165.27,472.68Z"></path><path class="cls-17" d="M165.29,464.11c0-1.24,0-2.54,0-3.89-3.3.88-11.79.38-13.45-3.89A39,39,0,0,1,151,452a.79.79,0,0,0-.78-.66l-12.07,0a1,1,0,0,0-1,1c.08,2.16.31,8.36-.34,10.88a16.23,16.23,0,0,0-.41,2.13C138.31,466.62,146,470.38,165.29,464.11Z"></path><path class="cls-16" d="M142,472.06a44,44,0,0,0,7-1,41.71,41.71,0,0,1,6.54-1.11c10.59-.6,13.29-3,16.71-4.76.11-1.28-6.94.44-6.91-1.07-17.15,5.59-25.45,3.73-28.37,2.37a.64.64,0,0,0-.91.58C136,470.38,137.89,472.09,142,472.06Z"></path><path class="cls-7" d="M134.05,349.18c3,3.83,3.54,30.29,3.3,41.73A47.77,47.77,0,0,1,136.06,401a57.81,57.81,0,0,0-1.57,17.28c.55,7,1.36,17.11,1.7,23.94l14.56-.1c.11-15.91,2.12-38.73,8.31-51.43l-9.83-37.37Z"></path><path class="cls-7" d="M150.24,442H136.49a.86.86,0,0,0-.86.87v4.34a.86.86,0,0,0,.86.87h14.18a.87.87,0,0,0,.86-.87v-4.34a.87.87,0,0,0-.86-.87Z"></path><path class="cls-12" d="M177.05,446.13H164.36a.87.87,0,0,0-.86.86v4.35a.87.87,0,0,0,.86.86h12.82a.86.86,0,0,0,.86-.86V447a.86.86,0,0,0-.86-.86Z"></path><path class="cls-6" d="M137.37,448.22s.3-.25.27,3.88a.88.88,0,0,0,.88.89h11.19a.88.88,0,0,0,.88-1,23.1,23.1,0,0,1-.27-4h-13Z"></path><path class="cls-17" d="M199.52,462.45c-5.65-.18-15.92,1.53-20-2.8a7.55,7.55,0,0,1-1.06-1.33,7,7,0,0,1-.76-2.51.87.87,0,0,0-.83-.77L165.49,455a.83.83,0,0,0-.83,1c.24,1.62.49,4,.51,5a79.5,79.5,0,0,1,0,8.1s27.08,8.51,38-5.34A4.89,4.89,0,0,0,199.52,462.45Z"></path><ellipse class="cls-6" cx="144.14" cy="452.21" rx="6.45" ry="1.99"></ellipse><ellipse class="cls-7" cx="143.6" cy="447.32" rx="7.93" ry="1.99"></ellipse><path class="cls-12" d="M177.7,327.78c-3.17-14.55-4.62-19.92-4.62-19.92L137,311.4s-3.13,8.57-5.79,16.45-1.29,16.6,2.79,21.25l.06.08,13.14,3.6a3.66,3.66,0,0,1,2.58,2.61l9.29,35.32.1.39.62,1.62c1,3.95,2.69,12.17,2,17.48-.89,7.21-1.52,14.3.76,25.05a76.62,76.62,0,0,1,1.26,11.4l13.48-.14c0-14.05,1.26-33.46,2-38.71C180.32,399.92,180.85,342.3,177.7,327.78Z"></path><path class="cls-17" d="M155.91,213.55a14.33,14.33,0,0,0-.07,3.13c.29,4.45-5,7.34-10.5,7.55a17.88,17.88,0,0,1-4.55,11.49c5.63-5.19,17.77,1.39,17.77,1.39,2-8.54,8.54-9.93,8.54-9.93.21.34.42.65.64.95l-9.29-15.08A1.38,1.38,0,0,0,155.91,213.55Z"></path><path class="cls-17" d="M159.13,204.15c-2.53,2,2.72,7.66,2.72,7.66s3.9,5.57,11.05-3.06l-.69-.84a.32.32,0,0,1,0-.47,3.46,3.46,0,0,0,1.24-1.63,2.49,2.49,0,0,0-.13-2c-1-1.84-3.53-6.77-5.23-9.9C167.77,195.73,166.13,199.63,159.13,204.15Z"></path><path class="cls-7" d="M136.53,313a2.63,2.63,0,0,1-1.39-2.57c.24-3.17-.11-11.94-5.58-34.2-7.59-30.87,12.14-42.38,12.14-42.38,3.23-2,11,.63,11,.63s16.19,6,22.27,8,7.84,10,7.84,10L178,310.65a3.19,3.19,0,0,1-1.33,2.24C172.38,316.14,162.89,326.11,136.53,313Z"></path><path class="cls-4" d="M198.38,281.89l-17.27-33.77h0c-1.14-2-2.73-3.23-4.92-3.23-7.26,0-13.14,7.91-13.14,17.65a22.28,22.28,0,0,0,1.94,9.24q.28.64.63,1.26a.75.75,0,0,1,.07.12l.2.34a23.9,23.9,0,0,0,3.23,4.15l14.59,14.83a9.15,9.15,0,0,0,14.68-10.59Z"></path><path class="cls-17" d="M189.33,264.34s2.91,4.74-2,13.28c-1,1.79-.84,2.73-.53,3.21a.67.67,0,0,0,1,.16c1.17-.92,4.48-3.79,4.84-7.23a31.38,31.38,0,0,1-1.77,7.72c-.7,1.88-.77,3-.19,3.92a.85.85,0,0,0,1.48-.06l2.57-4.93s-1,4.17.66,5.76a.65.65,0,0,0,1.07-.33l1.74-6.92a3.42,3.42,0,0,0-.55-2.84h0a6.29,6.29,0,0,1-1.19-3.33l-.12-2.19a2.43,2.43,0,0,0-1.67-2.18h0a2.82,2.82,0,0,1-1.87-2.06l-.32-1.41a3.42,3.42,0,0,0-1.71-2.26l-3.19-1.73Z"></path><path class="cls-17" d="M198.19,278.07s.78,4.15,1.37,6.75a.53.53,0,0,1-.9.49c-.63-.66-1.34-2-1.8-4.59Z"></path><path class="cls-14" d="M176.38,214.83a3,3,0,0,1-.8.11,3.22,3.22,0,0,1-3.23-3.21,4.19,4.19,0,0,1,1.09-2.41.47.47,0,0,0,0-.55h0a.39.39,0,0,0-.59,0c-7,8.14-11,3-11,3s-5.25-5.69-2.72-7.66c7-4.52,8.64-8.42,9-10.24-.1-.17-.19-.34-.28-.51-2.09-3.79-7.65-13.28-22.08-5.06s-12.71,19.17-7.14,25.62,6.7,10.25,6.7,10.25v0c5.46-.21,10.79-3.1,10.5-7.55a14.25,14.25,0,0,1,.07-3.12,1.38,1.38,0,0,1,2.54-.51l9.29,15.08c2.93,4,6.9,3.66,9.67,1.07C183.48,224.2,178.53,217.32,176.38,214.83Z"></path><path class="cls-17" d="M172.35,211.73a3.22,3.22,0,0,0,3.23,3.21,3,3,0,0,0,.8-.11c-.36-.41-.64-.7-.77-.84a.41.41,0,0,1-.11-.23,1.84,1.84,0,0,0-1.76-1.83l.1-1.57a1.08,1.08,0,0,0-.26-.79l-.17-.21A3.19,3.19,0,0,0,172.35,211.73Z"></path><rect class="cls-12" x="142.02" y="337.78" width="14.04" height="2.94"></rect><circle class="cls-7" cx="145.34" cy="459.32" r="2.56"></circle><path class="cls-6" d="M166.22,456.84h9.67a1.27,1.27,0,0,0,1.28-1.39c-.08-1-.15-2.11-.2-3.29H164.7c.09,1.17.18,2.33.24,3.47A1.28,1.28,0,0,0,166.22,456.84Z"></path><ellipse class="cls-6" cx="171.05" cy="455.82" rx="6.07" ry="1.99"></ellipse><ellipse class="cls-12" cx="170.79" cy="451.47" rx="7.23" ry="1.99"></ellipse><path class="cls-17" d="M165.21,468.64s-2.91,6.5,22.92,2.68l3.47-2.18Z"></path><path class="cls-17" d="M136.75,463.61a11.6,11.6,0,0,0-.36,3.08c.05,1.84,8.31,2.73,19.93-.19,8.39-2.12-8.57-1.49-8.57-1.49Z"></path><circle class="cls-7" cx="172.81" cy="462.61" r="2.56"></circle><path class="cls-3" d="M259.29,391.67s-2.9-19-17.77-22.08c-11.67-2.4.69-29-25.6-27a1.34,1.34,0,0,0-1,2.12c1,1.29,1.32,3.53-.73,7.42-4.69,8.95-2.64,18.84,5.08,23.8,9.91,6.37,4,15.74,13.18,15.83Z"></path><path class="cls-5" d="M396,158.86h8.52V146.8c5.15-.76,9.4-2.2,12.25-4.71a13.8,13.8,0,0,0,4.78-10.81,12.85,12.85,0,0,0-3.3-8.94q-3.3-3.66-11.88-7l-1.85-.64V97.82A51,51,0,0,1,417,101l3.29-8.27a50.72,50.72,0,0,0-15.81-3.5V79.61H396V89.3c-4.92.7-9.31,2.28-12.24,4.71a12.72,12.72,0,0,0-4.86,10.25,14.44,14.44,0,0,0,3.41,9.79q3.4,3.95,10.82,6.8l2.87.91V139.1a54.58,54.58,0,0,1-18.63-4.47v9.53c4.75,2,11.32,3.15,18.63,3.39Zm8.52-32.92c3.59,1.42,6.37,3.05,6.37,6.84,0,3.25-2.29,5.39-6.37,6.43Zm-15-21c0-3.71,2.94-5.33,6.48-6.09V112C392.21,110.44,389.47,109.19,389.47,105Z"></path><path class="cls-18" d="M396,98.9c-3.54.76-6.48,2.38-6.48,6.09,0,4.2,2.74,5.45,6.48,7Z"></path><path class="cls-18" d="M410.84,132.78c0-3.79-2.78-5.42-6.37-6.84v13.27C408.55,138.17,410.84,136,410.84,132.78Z"></path><path class="cls-18" d="M400,62.2a58,58,0,1,0,58,58A58,58,0,0,0,400,62.2Zm16.71,79.89c-2.85,2.51-7.1,3.95-12.25,4.71v12.06H396V147.55c-7.31-.24-13.88-1.36-18.63-3.39v-9.53A54.58,54.58,0,0,0,396,139.1V121.76l-2.87-.91q-7.41-2.85-10.82-6.8a14.44,14.44,0,0,1-3.41-9.79A12.72,12.72,0,0,1,383.71,94c2.93-2.43,7.32-4,12.24-4.71V79.61h8.52V89.2a50.72,50.72,0,0,1,15.81,3.5L417,101a51,51,0,0,0-12.52-3.15v16.92l1.85.64q8.58,3.3,11.88,7a12.85,12.85,0,0,1,3.3,8.94A13.8,13.8,0,0,1,416.72,142.09Z"></path></g></svg> 